<svg width="263.9" height="74.701" viewBox="0 0 263.9 74.701" xmlns="http://www.w3.org/2000/svg"><g id="svgGroup" stroke-linecap="round" fill-rule="evenodd" font-size="9pt" stroke="#eef0e5" stroke-width="0.25mm" fill="#163020" style="stroke:#eef0e5;stroke-width:0.25mm;fill:#163020"><path d="M 45.9 3.6 L 47.9 3.6 L 47.9 74 L 45.9 74 L 45.9 38.7 L 2 38.7 L 2 74 L 0 74 L 0 3.6 L 2 3.6 L 2 36.9 L 45.9 36.9 L 45.9 3.6 Z M 111.3 55.7 L 113.3 55.7 Q 111.9 64.2 105.35 69.45 A 23.249 23.249 0 0 1 95.558 73.992 A 33.401 33.401 0 0 1 88.5 74.7 Q 81 74.7 75.1 71.4 A 23.078 23.078 0 0 1 66.062 62.191 A 27.559 27.559 0 0 1 65.85 61.8 A 28.147 28.147 0 0 1 62.971 53.066 A 37.534 37.534 0 0 1 62.5 47 A 36.345 36.345 0 0 1 63.235 39.518 A 27.575 27.575 0 0 1 65.85 32.2 A 23.771 23.771 0 0 1 71.822 24.824 A 22.788 22.788 0 0 1 75.1 22.6 A 26.052 26.052 0 0 1 85.519 19.436 A 32.037 32.037 0 0 1 88.5 19.3 A 31.096 31.096 0 0 1 94.972 19.941 A 22.824 22.824 0 0 1 102 22.65 A 23.626 23.626 0 0 1 107.804 27.457 A 21.228 21.228 0 0 1 110.45 31.3 Q 113.3 36.6 113.3 42.5 A 213.336 213.336 0 0 1 113.294 44.187 Q 113.275 46.55 113.2 47.9 L 64.5 47.9 A 34.786 34.786 0 0 0 65.107 54.142 Q 65.948 58.453 67.95 61.8 A 22.559 22.559 0 0 0 72.866 67.627 A 20.554 20.554 0 0 0 76.7 70.15 A 25.536 25.536 0 0 0 88.101 72.897 A 29.573 29.573 0 0 0 88.5 72.9 A 29.787 29.787 0 0 0 95.785 72.051 A 22.527 22.527 0 0 0 103.8 68.3 A 18.787 18.787 0 0 0 111.279 55.825 A 24.311 24.311 0 0 0 111.3 55.7 Z M 263.9 74 L 261.6 74 L 245.1 48.3 L 228.7 74 L 226.5 74 L 243.9 46.5 L 226.8 20 L 229.1 20 L 245.3 45.1 L 261.4 20 L 263.5 20 L 246.4 46.9 L 263.9 74 Z M 176 36.5 L 176 20 L 177.9 20 L 177.9 74 L 176 74 L 176 57.5 Q 173.8 65 167.35 69.85 A 23.936 23.936 0 0 1 156.34 74.358 A 31.766 31.766 0 0 1 151.6 74.7 A 30.19 30.19 0 0 1 143.687 73.698 A 25.465 25.465 0 0 1 137.9 71.35 Q 131.9 68 128.6 61.75 A 27.856 27.856 0 0 1 125.845 53.535 A 37.534 37.534 0 0 1 125.3 47 A 36.914 36.914 0 0 1 125.978 39.759 A 27.552 27.552 0 0 1 128.6 32.25 Q 131.9 26 137.9 22.65 Q 143.9 19.3 151.6 19.3 A 29.631 29.631 0 0 1 159.318 20.262 A 23.295 23.295 0 0 1 167.35 24.15 Q 173.8 29 176 36.5 Z M 176 47 Q 176 39.3 172.85 33.45 Q 169.7 27.6 164.15 24.35 A 23.884 23.884 0 0 0 153.434 21.157 A 28.975 28.975 0 0 0 151.6 21.1 A 29.728 29.728 0 0 0 145.091 21.781 A 22.842 22.842 0 0 0 138.75 24.2 Q 133.3 27.3 130.3 33.15 A 26.55 26.55 0 0 0 127.814 40.744 A 36.342 36.342 0 0 0 127.3 47 A 36.031 36.031 0 0 0 127.874 53.588 A 26.391 26.391 0 0 0 130.3 60.85 Q 133.3 66.7 138.75 69.8 A 23.386 23.386 0 0 0 146.638 72.517 A 30.954 30.954 0 0 0 151.6 72.9 Q 158.6 72.9 164.15 69.65 Q 169.7 66.4 172.85 60.55 A 26.172 26.172 0 0 0 175.677 51.743 A 33.729 33.729 0 0 0 176 47 Z M 194.9 0 L 196.9 0 L 196.9 74 L 194.9 74 L 194.9 0 Z M 64.5 46.1 L 111.5 46.1 A 36.992 36.992 0 0 0 111.568 43.885 Q 111.57 37.036 108.85 32.2 A 20.663 20.663 0 0 0 103.32 25.762 A 19.933 19.933 0 0 0 100.25 23.85 Q 94.8 21.1 88.5 21.1 A 25.913 25.913 0 0 0 78.412 23.058 A 25.002 25.002 0 0 0 76.7 23.85 A 21.176 21.176 0 0 0 68.596 31.175 A 25.668 25.668 0 0 0 67.95 32.2 A 23.096 23.096 0 0 0 65.308 38.912 Q 64.642 41.797 64.523 45.137 A 40.82 40.82 0 0 0 64.5 46.1 Z M 213.9 20 L 215.9 20 L 215.9 74 L 213.9 74 L 213.9 20 Z M 213.859 6.001 A 2.659 2.659 0 0 0 214.9 6.2 A 3.201 3.201 0 0 0 214.934 6.2 A 2.508 2.508 0 0 0 216.75 5.45 A 2.46 2.46 0 0 0 217.376 4.401 A 3.127 3.127 0 0 0 217.5 3.5 A 3.471 3.471 0 0 0 217.474 3.066 A 2.525 2.525 0 0 0 216.75 1.55 A 2.52 2.52 0 0 0 215.941 0.999 A 2.659 2.659 0 0 0 214.9 0.8 A 3.201 3.201 0 0 0 214.866 0.8 A 2.508 2.508 0 0 0 213.05 1.55 A 2.46 2.46 0 0 0 212.424 2.599 A 3.127 3.127 0 0 0 212.3 3.5 A 3.471 3.471 0 0 0 212.326 3.934 A 2.525 2.525 0 0 0 213.05 5.45 A 2.52 2.52 0 0 0 213.859 6.001 Z" vector-effect="non-scaling-stroke"/></g></svg>